<svg width="45" height="44" viewBox="0 0 45 44" fill="none" xmlns="http://www.w3.org/2000/svg">
<rect x="0.666504" width="44" height="44" rx="22" fill="#1A73E8"/>
<path d="M33.6614 20.105C29.8214 16.265 24.4714 14.865 19.5114 15.885L22.0314 18.405C25.5014 18.235 29.0214 19.455 31.6614 22.105L33.6614 20.105ZM29.6614 24.105C28.3714 22.815 26.8214 21.975 25.1714 21.545L28.7014 25.075L29.6614 24.105ZM12.6714 14.155L15.7414 17.205C14.2714 17.925 12.8914 18.885 11.6714 20.105L13.6614 22.105C14.9014 20.865 16.3314 19.945 17.8614 19.335L20.1014 21.575C18.4814 21.995 16.9414 22.835 15.6714 24.105V24.115L17.6614 26.105C19.0214 24.745 20.8014 24.065 22.5814 24.045L29.6514 31.105L30.9214 29.845L13.9614 12.895L12.6714 14.155ZM19.6714 28.105L22.6714 31.105L25.6714 28.105C24.0214 26.445 21.3314 26.445 19.6714 28.105Z" fill="white"/>
</svg>
