<svg width="45" height="44" viewBox="0 0 45 44" fill="none" xmlns="http://www.w3.org/2000/svg">
<rect x="0.333008" width="44" height="44" rx="22" fill="#1A73E8"/>
<path d="M13.333 16H31.333V14H13.333C12.233 14 11.333 14.9 11.333 16V28C11.333 29.1 12.233 30 13.333 30H17.333V28H13.333V16ZM23.333 22H19.333V23.78C18.723 24.33 18.333 25.11 18.333 26C18.333 26.89 18.723 27.67 19.333 28.22V30H23.333V28.22C23.943 27.67 24.333 26.88 24.333 26C24.333 25.12 23.943 24.33 23.333 23.78V22ZM21.333 27.5C20.503 27.5 19.833 26.83 19.833 26C19.833 25.17 20.503 24.5 21.333 24.5C22.163 24.5 22.833 25.17 22.833 26C22.833 26.83 22.163 27.5 21.333 27.5ZM32.333 18H26.333C25.833 18 25.333 18.5 25.333 19V29C25.333 29.5 25.833 30 26.333 30H32.333C32.833 30 33.333 29.5 33.333 29V19C33.333 18.5 32.833 18 32.333 18ZM31.333 28H27.333V20H31.333V28Z" fill="white"/>
</svg>
